<svg width="24" height="24" viewBox="0 0 24 24" fill="none" xmlns="http://www.w3.org/2000/svg">
<path d="M22.875 8.25047V14.2505C22.875 14.5488 22.7565 14.835 22.5455 15.046C22.3345 15.2569 22.0484 15.3755 21.75 15.3755H15.75C15.4516 15.3755 15.1655 15.2569 14.9545 15.046C14.7435 14.835 14.625 14.5488 14.625 14.2505C14.625 13.9521 14.7435 13.666 14.9545 13.455C15.1655 13.244 15.4516 13.1255 15.75 13.1255H19.0219L17.5706 11.6845C16.4696 10.5826 15.0664 9.83198 13.5387 9.52762C12.0109 9.22325 10.4273 9.37881 8.98795 9.97463C7.54864 10.5704 6.31837 11.5797 5.45275 12.8749C4.58714 14.17 4.12507 15.6927 4.125 17.2505C4.125 17.5488 4.00647 17.835 3.7955 18.046C3.58452 18.2569 3.29837 18.3755 3 18.3755C2.70163 18.3755 2.41548 18.2569 2.2045 18.046C1.99353 17.835 1.875 17.5488 1.875 17.2505C1.87491 15.2479 2.46868 13.2902 3.58122 11.6251C4.69377 9.95994 6.27511 8.66213 8.12527 7.89575C9.97543 7.12937 12.0113 6.92887 13.9754 7.31958C15.9395 7.71029 17.7437 8.67468 19.1597 10.0908L20.625 11.5467V8.25047C20.625 7.9521 20.7435 7.66595 20.9545 7.45497C21.1655 7.24399 21.4516 7.12547 21.75 7.12547C22.0484 7.12547 22.3345 7.24399 22.5455 7.45497C22.7565 7.66595 22.875 7.9521 22.875 8.25047Z" fill="white" fill-opacity="0.95"/>
</svg>
