<svg width="32" height="32" viewBox="0 0 32 32" fill="none" xmlns="http://www.w3.org/2000/svg">
<path d="M21.5 17C21.5 17.3978 21.342 17.7794 21.0607 18.0607C20.7794 18.342 20.3978 18.5 20 18.5H17.5V21C17.5 21.3978 17.342 21.7794 17.0607 22.0607C16.7794 22.342 16.3978 22.5 16 22.5C15.6022 22.5 15.2206 22.342 14.9393 22.0607C14.658 21.7794 14.5 21.3978 14.5 21V18.5H12C11.6022 18.5 11.2206 18.342 10.9393 18.0607C10.658 17.7794 10.5 17.3978 10.5 17C10.5 16.6022 10.658 16.2206 10.9393 15.9393C11.2206 15.658 11.6022 15.5 12 15.5H14.5V13C14.5 12.6022 14.658 12.2206 14.9393 11.9393C15.2206 11.658 15.6022 11.5 16 11.5C16.3978 11.5 16.7794 11.658 17.0607 11.9393C17.342 12.2206 17.5 12.6022 17.5 13V15.5H20C20.3978 15.5 20.7794 15.658 21.0607 15.9393C21.342 16.2206 21.5 16.6022 21.5 17ZM29.5 10V24C29.5 24.4596 29.4095 24.9148 29.2336 25.3394C29.0577 25.764 28.7999 26.1499 28.4749 26.4749C28.1499 26.7999 27.764 27.0577 27.3394 27.2336C26.9148 27.4095 26.4596 27.5 26 27.5H6C5.07174 27.5 4.1815 27.1313 3.52513 26.4749C2.86875 25.8185 2.5 24.9283 2.5 24V10C2.5 9.07174 2.86875 8.1815 3.52513 7.52513C4.1815 6.86875 5.07174 6.5 6 6.5H9.1975L10.455 4.61375C10.6832 4.27123 10.9925 3.99035 11.3553 3.79606C11.7182 3.60177 12.1234 3.50008 12.535 3.5H19.465C19.8766 3.50008 20.2818 3.60177 20.6447 3.79606C21.0075 3.99035 21.3168 4.27123 21.545 4.61375L22.8025 6.5H26C26.4596 6.5 26.9148 6.59053 27.3394 6.76642C27.764 6.94231 28.1499 7.20012 28.4749 7.52513C28.7999 7.85013 29.0577 8.23597 29.2336 8.66061C29.4095 9.08525 29.5 9.54037 29.5 10ZM26.5 10C26.5 9.86739 26.4473 9.74021 26.3536 9.64645C26.2598 9.55268 26.1326 9.5 26 9.5H22C21.7528 9.50037 21.5093 9.43962 21.2912 9.32316C21.0731 9.20671 20.8872 9.03816 20.75 8.8325L19.1975 6.5H12.8025L11.25 8.8325C11.1128 9.03816 10.9269 9.20671 10.7088 9.32316C10.4907 9.43962 10.2472 9.50037 10 9.5H6C5.86739 9.5 5.74021 9.55268 5.64645 9.64645C5.55268 9.74021 5.5 9.86739 5.5 10V24C5.5 24.1326 5.55268 24.2598 5.64645 24.3536C5.74021 24.4473 5.86739 24.5 6 24.5H26C26.1326 24.5 26.2598 24.4473 26.3536 24.3536C26.4473 24.2598 26.5 24.1326 26.5 24V10Z" fill="white" fill-opacity="0.95"/>
</svg>
