<svg width="32" height="32" viewBox="0 0 32 32" fill="none" xmlns="http://www.w3.org/2000/svg">
<path d="M24.9388 10.9387C25.2206 11.2205 25.3789 11.6027 25.3789 12.0012C25.3789 12.3997 25.2206 12.7819 24.9388 13.0637L17.0637 20.9387C16.7819 21.2205 16.3997 21.3788 16.0012 21.3788C15.6027 21.3788 15.2205 21.2205 14.9387 20.9387L7.0637 13.0637C6.78191 12.7819 6.6236 12.3997 6.6236 12.0012C6.6236 11.6027 6.78191 11.2205 7.0637 10.9387C7.34549 10.6569 7.72768 10.4986 8.1262 10.4986C8.52471 10.4986 8.90691 10.6569 9.1887 10.9387L16.0012 17.7512L22.8137 10.9387C23.0955 10.6569 23.4777 10.4986 23.8762 10.4986C24.2747 10.4986 24.657 10.6569 24.9388 10.9387Z" fill="white"/>
</svg>
