<svg width="24" height="24" viewBox="0 0 24 24" fill="none" xmlns="http://www.w3.org/2000/svg">
<g filter="url(#filter0_dd_160_4969)">
<path d="M8.20427 5.2959C7.99293 5.08456 7.87419 4.79791 7.87419 4.49903C7.87419 4.20014 7.99293 3.9135 8.20427 3.70215C8.41562 3.49081 8.70226 3.37207 9.00115 3.37207C9.30003 3.37207 9.58668 3.49081 9.79802 3.70215L17.298 11.2022C17.4029 11.3067 17.4861 11.4309 17.5429 11.5676C17.5997 11.7044 17.6289 11.851 17.6289 11.999C17.6289 12.1471 17.5997 12.2937 17.5429 12.4304C17.4861 12.5672 17.4029 12.6914 17.298 12.7959L9.79802 20.2959C9.58668 20.5072 9.30003 20.626 9.00114 20.626C8.70226 20.626 8.41561 20.5072 8.20427 20.2959C7.99293 20.0846 7.87419 19.7979 7.87419 19.499C7.87419 19.2001 7.99293 18.9135 8.20427 18.7022L14.9065 12L8.20427 5.2959Z" fill="#27C58B"/>
</g>
<defs>
<filter id="filter0_dd_160_4969" x="-0.15" y="-0.149998" width="25.65" height="25.65" filterUnits="userSpaceOnUse" color-interpolation-filters="sRGB">
<feFlood flood-opacity="0" result="BackgroundImageFix"/>
<feColorMatrix in="SourceAlpha" type="matrix" values="0 0 0 0 0 0 0 0 0 0 0 0 0 0 0 0 0 0 127 0" result="hardAlpha"/>
<feOffset dx="0.75" dy="0.75"/>
<feGaussianBlur stdDeviation="0.375"/>
<feColorMatrix type="matrix" values="0 0 0 0 0 0 0 0 0 0 0 0 0 0 0 0 0 0 0.1 0"/>
<feBlend mode="normal" in2="BackgroundImageFix" result="effect1_dropShadow_160_4969"/>
<feColorMatrix in="SourceAlpha" type="matrix" values="0 0 0 0 0 0 0 0 0 0 0 0 0 0 0 0 0 0 127 0" result="hardAlpha"/>
<feOffset dx="0.3" dy="0.3"/>
<feGaussianBlur stdDeviation="0.225"/>
<feComposite in2="hardAlpha" operator="out"/>
<feColorMatrix type="matrix" values="0 0 0 0 0 0 0 0 0 0 0 0 0 0 0 0 0 0 0.1 0"/>
<feBlend mode="normal" in2="effect1_dropShadow_160_4969" result="effect2_dropShadow_160_4969"/>
<feBlend mode="normal" in="SourceGraphic" in2="effect2_dropShadow_160_4969" result="shape"/>
</filter>
</defs>
</svg>
