<svg width="32" height="32" viewBox="0 0 32 32" fill="none" xmlns="http://www.w3.org/2000/svg">
<g transform="translate(4.0000, 5.0008)">
<path id="Vector" d="M24 1V17C24 17.2652 23.8946 17.5196 23.7071 17.7071C23.5196 17.8946 23.2652 18 23 18H6L1.64375 21.7637C1.4981 21.8863 1.3205 21.9647 1.13183 21.9898C0.943154 22.0149 0.751237 21.9856 0.578624 21.9054C0.406011 21.8252 0.259872 21.6974 0.157376 21.537C0.0548793 21.3766 0.000282638 21.1903 0 21V1C0 0.734783 0.105357 0.48043 0.292893 0.292893C0.48043 0.105357 0.734784 0 1 0H23C23.2652 0 23.5196 0.105357 23.7071 0.292893C23.8946 0.48043 24 0.734783 24 1Z" fill="white" fill-opacity="0.25"/>
</g>
</svg>
