<svg width="13" height="10" viewBox="0 0 13 10" fill="none" xmlns="http://www.w3.org/2000/svg">
<path d="M12.8916 0.92908C12.8159 0.746753 12.7049 0.581163 12.5651 0.441808C12.426 0.302097 12.2608 0.191166 12.0788 0.115358C11.8969 0.0395495 11.7018 0.000350616 11.5046 2.34139e-06C11.3075 -0.000345933 11.1122 0.0381626 10.93 0.113327C10.7478 0.188492 10.5822 0.29884 10.4426 0.438058L7.47323 3.40806L4.50385 6.37806L2.5651 4.44181C2.42557 4.30228 2.25993 4.1916 2.07762 4.11608C1.89532 4.04057 1.69993 4.00171 1.5026 4.00171C1.30528 4.00171 1.10988 4.04057 0.927581 4.11608C0.745277 4.1916 0.579631 4.30228 0.440102 4.44181C0.300572 4.58134 0.189892 4.74698 0.114379 4.92929C0.0388661 5.11159 0 5.30698 0 5.50431C0 5.70163 0.0388661 5.89703 0.114379 6.07933C0.189892 6.26163 0.300572 6.42728 0.440102 6.56681L3.4401 9.56681C3.57946 9.70665 3.74505 9.8176 3.92737 9.89331C4.1097 9.96902 4.30518 10.008 4.5026 10.008C4.70002 10.008 4.8955 9.96902 5.07783 9.89331C5.26016 9.8176 5.42575 9.70665 5.5651 9.56681L9.0651 6.06681L12.5651 2.56681C12.7049 2.42745 12.8159 2.26186 12.8916 2.07954C12.9673 1.89721 13.0063 1.70173 13.0063 1.50431C13.0063 1.30689 12.9673 1.11141 12.8916 0.92908Z" fill="white"/>
</svg>
