<svg width="32" height="32" viewBox="0 0 32 32" fill="none" xmlns="http://www.w3.org/2000/svg">
<g filter="url(#filter0_dd_109_642)">
<path d="M26.0612 23.9387C26.343 24.2205 26.5013 24.6027 26.5013 25.0012C26.5013 25.3997 26.343 25.7819 26.0612 26.0637C25.7794 26.3455 25.3972 26.5038 24.9987 26.5038C24.6002 26.5038 24.218 26.3455 23.9362 26.0637L15.9999 18.125L8.0612 26.0612C7.7794 26.343 7.39721 26.5013 6.9987 26.5013C6.60018 26.5013 6.21799 26.343 5.9362 26.0612C5.6544 25.7794 5.49609 25.3972 5.49609 24.9987C5.49609 24.6002 5.6544 24.218 5.9362 23.9362L13.8749 16L5.9387 8.06122C5.6569 7.77943 5.49859 7.39724 5.49859 6.99872C5.49859 6.60021 5.6569 6.21802 5.9387 5.93622C6.22049 5.65443 6.60268 5.49612 7.0012 5.49612C7.39971 5.49612 7.7819 5.65443 8.0637 5.93622L15.9999 13.875L23.9387 5.93497C24.2205 5.65318 24.6027 5.49487 25.0012 5.49487C25.3997 5.49487 25.7819 5.65318 26.0637 5.93497C26.3455 6.21677 26.5038 6.59896 26.5038 6.99747C26.5038 7.39599 26.3455 7.77818 26.0637 8.05998L18.1249 16L26.0612 23.9387Z" fill="white"/>
</g>
<defs>
<filter id="filter0_dd_109_642" x="-0.2" y="-0.2" width="34.2" height="34.2" filterUnits="userSpaceOnUse" color-interpolation-filters="sRGB">
<feFlood flood-opacity="0" result="BackgroundImageFix"/>
<feColorMatrix in="SourceAlpha" type="matrix" values="0 0 0 0 0 0 0 0 0 0 0 0 0 0 0 0 0 0 127 0" result="hardAlpha"/>
<feOffset dx="1" dy="1"/>
<feGaussianBlur stdDeviation="0.5"/>
<feColorMatrix type="matrix" values="0 0 0 0 0 0 0 0 0 0 0 0 0 0 0 0 0 0 0.1 0"/>
<feBlend mode="normal" in2="BackgroundImageFix" result="effect1_dropShadow_109_642"/>
<feColorMatrix in="SourceAlpha" type="matrix" values="0 0 0 0 0 0 0 0 0 0 0 0 0 0 0 0 0 0 127 0" result="hardAlpha"/>
<feOffset dx="0.4" dy="0.4"/>
<feGaussianBlur stdDeviation="0.3"/>
<feComposite in2="hardAlpha" operator="out"/>
<feColorMatrix type="matrix" values="0 0 0 0 0 0 0 0 0 0 0 0 0 0 0 0 0 0 0.1 0"/>
<feBlend mode="normal" in2="effect1_dropShadow_109_642" result="effect2_dropShadow_109_642"/>
<feBlend mode="normal" in="SourceGraphic" in2="effect2_dropShadow_109_642" result="shape"/>
</filter>
</defs>
</svg>
