<svg width="32" height="32" viewBox="0 0 32 32" fill="none" xmlns="http://www.w3.org/2000/svg">
<path d="M27.0001 12.5H16.6151L26.3826 9.92122C26.574 9.87075 26.7535 9.7829 26.9108 9.66273C27.0681 9.54257 27.2 9.39247 27.299 9.22108C27.398 9.04969 27.4621 8.86041 27.4876 8.66413C27.5131 8.46785 27.4995 8.26847 27.4476 8.07747L26.4276 4.32747C26.2524 3.69577 25.8353 3.15854 25.2668 2.83216C24.6982 2.50578 24.024 2.41652 23.3901 2.58372L4.34887 7.60872C4.03164 7.69138 3.73405 7.83642 3.4735 8.03537C3.21295 8.23433 2.99466 8.4832 2.83137 8.76747C2.66778 9.04796 2.56194 9.35834 2.52007 9.68035C2.47821 10.0023 2.50118 10.3295 2.58762 10.6425L3.50012 14V25C3.50012 25.663 3.76351 26.2989 4.23235 26.7677C4.7012 27.2366 5.33708 27.5 6.00012 27.5H26.0001C26.6632 27.5 27.299 27.2366 27.7679 26.7677C28.2367 26.2989 28.5001 25.663 28.5001 25V14C28.5001 13.6021 28.3421 13.2206 28.0608 12.9393C27.7795 12.658 27.3979 12.5 27.0001 12.5ZM15.6114 7.73872L17.8976 9.05872L14.6539 9.91497L12.3676 8.59497L15.6114 7.73872ZM23.6676 5.61372L24.1564 7.40747L22.0151 7.97247L19.7289 6.65122L23.6676 5.61372ZM8.25012 9.68247L10.5364 11L6.11137 12.1687L5.62512 10.375L8.25012 9.68247ZM25.5001 24.5H6.50012V15.5H25.5001V24.5Z" fill="white" fill-opacity="0.95"/>
</svg>
