<svg width="32" height="32" viewBox="0 0 32 32" fill="none" xmlns="http://www.w3.org/2000/svg">
<path d="M10.9375 18.94L18.9375 10.94C19.0771 10.8004 19.2427 10.6898 19.425 10.6143C19.6073 10.5387 19.8027 10.4999 20 10.4999C20.1974 10.4999 20.3928 10.5387 20.5751 10.6143C20.7574 10.6898 20.923 10.8004 21.0625 10.94C21.2021 11.0795 21.3127 11.2452 21.3883 11.4275C21.4638 11.6098 21.5026 11.8052 21.5026 12.0025C21.5026 12.1998 21.4638 12.3952 21.3883 12.5775C21.3127 12.7598 21.2021 12.9254 21.0625 13.065L13.0625 21.065C12.7807 21.3468 12.3986 21.5051 12 21.5051C11.6015 21.5051 11.2193 21.3468 10.9375 21.065C10.6557 20.7832 10.4974 20.401 10.4974 20.0025C10.4974 19.604 10.6557 19.2218 10.9375 18.94ZM27.3125 4.68998C25.9046 3.28524 23.997 2.49634 22.0082 2.49634C20.0193 2.49634 18.1117 3.28524 16.7038 4.68998L12.9388 8.45123C12.657 8.73302 12.4987 9.11521 12.4987 9.51373C12.4987 9.71105 12.5376 9.90644 12.6131 10.0887C12.6886 10.2711 12.7993 10.4367 12.9388 10.5762C13.0783 10.7158 13.244 10.8264 13.4263 10.9019C13.6086 10.9775 13.804 11.0163 14.0013 11.0163C14.3998 11.0163 14.782 10.858 15.0638 10.5762L18.8225 6.81873C19.6666 5.97451 20.8114 5.50017 22.0052 5.50005C23.199 5.49993 24.3439 5.97405 25.1882 6.8181C26.0324 7.66215 26.5067 8.807 26.5068 10.0008C26.507 11.1946 26.0328 12.3395 25.1888 13.1837L21.425 16.94C21.2855 17.0795 21.1748 17.2452 21.0993 17.4275C21.0238 17.6098 20.9849 17.8052 20.9849 18.0025C20.9849 18.1998 21.0238 18.3952 21.0993 18.5775C21.1748 18.7598 21.2855 18.9254 21.425 19.065C21.5646 19.2045 21.7302 19.3152 21.9125 19.3907C22.0948 19.4662 22.2902 19.5051 22.4875 19.5051C22.6849 19.5051 22.8803 19.4662 23.0626 19.3907C23.2449 19.3152 23.4105 19.2045 23.55 19.065L27.31 15.3075C28.7155 13.8987 29.5045 11.9898 29.5038 9.99983C29.5031 8.00986 28.7127 6.1015 27.3063 4.69373L27.3125 4.68998ZM16.94 21.425L13.1813 25.185C12.7633 25.6029 12.267 25.9344 11.7209 26.1606C11.1748 26.3867 10.5894 26.5031 9.99835 26.503C9.40724 26.503 8.82194 26.3865 8.27585 26.1602C7.72977 25.934 7.23359 25.6024 6.81566 25.1844C5.97161 24.3401 5.49749 23.1952 5.49761 22.0014C5.49773 20.8076 5.97207 19.6628 6.81629 18.8187L10.5738 15.06C10.7133 14.9204 10.824 14.7548 10.8995 14.5725C10.975 14.3902 11.0139 14.1948 11.0139 13.9975C11.0139 13.8002 10.975 13.6048 10.8995 13.4225C10.824 13.2402 10.7133 13.0745 10.5738 12.935C10.4343 12.7954 10.2686 12.6848 10.0863 12.6093C9.904 12.5337 9.70861 12.4949 9.51129 12.4949C9.31396 12.4949 9.11857 12.5337 8.93627 12.6093C8.75396 12.6848 8.58832 12.7954 8.44879 12.935L4.69379 16.6975C3.99721 17.3941 3.44467 18.2212 3.06771 19.1314C2.69075 20.0416 2.49677 21.0171 2.49683 22.0023C2.49694 23.9919 3.28744 25.9 4.69441 27.3069C6.10139 28.7137 8.00959 29.5039 9.99923 29.5038C11.9889 29.5037 13.897 28.7132 15.3038 27.3062L19.0613 23.5475C19.3431 23.2657 19.5014 22.8835 19.5014 22.485C19.5014 22.0865 19.3431 21.7043 19.0613 21.4225C18.7795 21.1407 18.3973 20.9824 17.9988 20.9824C17.6003 20.9824 17.2181 21.1407 16.9363 21.4225L16.94 21.425Z" fill="white" fill-opacity="0.95"/>
</svg>
