<svg width="24" height="24" viewBox="0 0 24 24" fill="none" xmlns="http://www.w3.org/2000/svg">
<path d="M22.1251 3C22.1251 2.70163 22.0066 2.41548 21.7956 2.2045C21.5846 1.99353 21.2985 1.875 21.0001 1.875C16.802 1.875 12.5626 6.42563 10.1345 9.5625C9.2476 9.33351 8.32007 9.31061 7.42298 9.49556C6.52588 9.68051 5.68304 10.0684 4.95905 10.6295C4.23506 11.1906 3.64914 11.91 3.24621 12.7326C2.84327 13.5551 2.63402 14.459 2.63448 15.375C2.63448 16.5 2.34385 17.5041 1.76917 18.3525C1.52785 18.7204 1.22795 19.0462 0.881355 19.3172C0.679285 19.4484 0.525196 19.6415 0.442201 19.8677C0.359207 20.0938 0.351782 20.3408 0.421042 20.5716C0.49177 20.805 0.63604 21.0093 0.832349 21.1541C1.02866 21.2989 1.2665 21.3764 1.51042 21.375H8.63542C9.55051 21.3739 10.4532 21.1635 11.2745 20.7599C12.0958 20.3563 12.8138 19.7701 13.3738 19.0464C13.9337 18.3226 14.3207 17.4803 14.5051 16.584C14.6895 15.6877 14.6664 14.761 14.4376 13.875C17.5773 11.4422 22.1251 7.2 22.1251 3ZM19.652 4.34906C19.277 5.56031 18.4192 6.92625 17.1282 8.37188C16.847 8.68969 16.5507 9 16.2517 9.29906C15.7956 8.72688 15.2767 8.20769 14.7048 7.75125C15.0039 7.45219 15.3132 7.15875 15.631 6.87469C17.0767 5.58281 18.4417 4.72781 19.652 4.34906ZM8.63167 19.125H3.9376C4.57626 17.9794 4.904 16.6865 4.88823 15.375C4.88823 14.6333 5.10816 13.9083 5.52022 13.2916C5.93227 12.6749 6.51794 12.1943 7.20317 11.9105C7.88839 11.6266 8.64239 11.5524 9.36982 11.6971C10.0972 11.8417 10.7654 12.1989 11.2899 12.7233C11.8143 13.2478 12.1715 13.916 12.3162 14.6434C12.4609 15.3708 12.3866 16.1248 12.1028 16.8101C11.8189 17.4953 11.3383 18.081 10.7216 18.493C10.1049 18.9051 9.37991 19.125 8.63823 19.125H8.63167ZM12.211 10.5638C12.5035 10.1953 12.8251 9.80531 13.1701 9.40594C13.7079 9.81607 14.1881 10.2966 14.5979 10.8347C14.1985 11.1797 13.8085 11.5013 13.4401 11.7938C13.0919 11.3266 12.6779 10.9123 12.211 10.5638Z" fill="#00452D"/>
</svg>
