<svg width="32" height="32" viewBox="0 0 32 32" fill="none" xmlns="http://www.w3.org/2000/svg">
<path d="M29.3113 13.8836L11.3013 2.86734C10.9236 2.63709 10.4915 2.51117 10.0493 2.50244C9.60702 2.49371 9.17036 2.60248 8.78387 2.81765C8.39739 3.03281 8.07491 3.34667 7.84936 3.72719C7.6238 4.10771 7.50325 4.54126 7.5 4.98359V27.0161C7.50325 27.4584 7.6238 27.892 7.84936 28.2725C8.07491 28.653 8.39739 28.9669 8.78387 29.182C9.17036 29.3972 9.60702 29.506 10.0493 29.4972C10.4915 29.4885 10.9236 29.3626 11.3013 29.1323L29.3113 18.1161C29.6744 17.895 29.9746 17.5842 30.1828 17.2136C30.3911 16.843 30.5005 16.425 30.5005 15.9998C30.5005 15.5747 30.3911 15.1567 30.1828 14.7861C29.9746 14.4154 29.6744 14.1047 29.3113 13.8836ZM10.5 26.1061V5.89359L27.02 15.9998L10.5 26.1061Z" fill="white" fill-opacity="0.95"/>
</svg>
