<svg width="32" height="32" viewBox="0 0 32 32" fill="none" xmlns="http://www.w3.org/2000/svg">
<path d="M29.3113 13.8837L11.3013 2.86749C10.9236 2.63724 10.4915 2.51132 10.0493 2.50259C9.60702 2.49386 9.17036 2.60263 8.78387 2.8178C8.39739 3.03296 8.07491 3.34682 7.84936 3.72734C7.6238 4.10786 7.50325 4.54141 7.5 4.98374V27.0162C7.50325 27.4586 7.6238 27.8921 7.84936 28.2726C8.07491 28.6532 8.39739 28.967 8.78387 29.1822C9.17036 29.3974 9.60702 29.5061 10.0493 29.4974C10.4915 29.4887 10.9236 29.3627 11.3013 29.1325L29.3113 18.1162C29.6744 17.8952 29.9746 17.5844 30.1828 17.2138C30.3911 16.8431 30.5005 16.4251 30.5005 16C30.5005 15.5748 30.3911 15.1569 30.1828 14.7862C29.9746 14.4156 29.6744 14.1048 29.3113 13.8837ZM10.5 26.1062V5.89374L27.02 16L10.5 26.1062Z" fill="white" fill-opacity="0.95"/>
</svg>
