<svg width="24" height="24" viewBox="0 0 24 24" fill="none" xmlns="http://www.w3.org/2000/svg">
<path d="M15.75 2.625H8.25C6.75869 2.62674 5.32896 3.21993 4.27444 4.27444C3.21993 5.32896 2.62674 6.75869 2.625 8.25V15.75C2.62674 17.2413 3.21993 18.671 4.27444 19.7256C5.32896 20.7801 6.75869 21.3733 8.25 21.375H12.75C12.8708 21.375 12.9908 21.3554 13.1053 21.3169C15.6956 20.4534 20.4534 15.6919 21.3169 13.1053C21.3554 12.9908 21.375 12.8708 21.375 12.75V8.25C21.3733 6.75869 20.7801 5.32896 19.7256 4.27444C18.671 3.21993 17.2413 2.62674 15.75 2.625ZM4.875 15.75V8.25C4.875 7.35489 5.23058 6.49645 5.86351 5.86351C6.49645 5.23058 7.35489 4.875 8.25 4.875H15.75C16.6451 4.875 17.5035 5.23058 18.1365 5.86351C18.7694 6.49645 19.125 7.35489 19.125 8.25V11.625H17.25C15.7587 11.6267 14.329 12.2199 13.2744 13.2744C12.2199 14.329 11.6267 15.7587 11.625 17.25V19.125H8.25C7.35489 19.125 6.49645 18.7694 5.86351 18.1365C5.23058 17.5035 4.875 16.6451 4.875 15.75ZM13.875 18.3403V17.25C13.875 16.3549 14.2306 15.4965 14.8635 14.8635C15.4965 14.2306 16.3549 13.875 17.25 13.875H18.3403C17.25 15.3853 15.3853 17.25 13.875 18.3403Z" fill="#27C58B"/>
</svg>
