<svg width="24" height="24" viewBox="0 0 24 24" fill="none" xmlns="http://www.w3.org/2000/svg">
<path d="M2.625 6C2.625 5.70163 2.74353 5.41548 2.9545 5.2045C3.16548 4.99353 3.45163 4.875 3.75 4.875H20.25C20.5484 4.875 20.8345 4.99353 21.0455 5.2045C21.2565 5.41548 21.375 5.70163 21.375 6C21.375 6.29837 21.2565 6.58452 21.0455 6.7955C20.8345 7.00647 20.5484 7.125 20.25 7.125H3.75C3.45163 7.125 3.16548 7.00647 2.9545 6.7955C2.74353 6.58452 2.625 6.29837 2.625 6ZM6 8.625C5.70163 8.625 5.41548 8.74353 5.2045 8.9545C4.99353 9.16548 4.875 9.45163 4.875 9.75C4.875 10.0484 4.99353 10.3345 5.2045 10.5455C5.41548 10.7565 5.70163 10.875 6 10.875H18C18.2984 10.875 18.5845 10.7565 18.7955 10.5455C19.0065 10.3345 19.125 10.0484 19.125 9.75C19.125 9.45163 19.0065 9.16548 18.7955 8.9545C18.5845 8.74353 18.2984 8.625 18 8.625H6ZM20.25 12.375H3.75C3.45163 12.375 3.16548 12.4935 2.9545 12.7045C2.74353 12.9155 2.625 13.2016 2.625 13.5C2.625 13.7984 2.74353 14.0845 2.9545 14.2955C3.16548 14.5065 3.45163 14.625 3.75 14.625H20.25C20.5484 14.625 20.8345 14.5065 21.0455 14.2955C21.2565 14.0845 21.375 13.7984 21.375 13.5C21.375 13.2016 21.2565 12.9155 21.0455 12.7045C20.8345 12.4935 20.5484 12.375 20.25 12.375ZM18 16.125H6C5.70163 16.125 5.41548 16.2435 5.2045 16.4545C4.99353 16.6655 4.875 16.9516 4.875 17.25C4.875 17.5484 4.99353 17.8345 5.2045 18.0455C5.41548 18.2565 5.70163 18.375 6 18.375H18C18.2984 18.375 18.5845 18.2565 18.7955 18.0455C19.0065 17.8345 19.125 17.5484 19.125 17.25C19.125 16.9516 19.0065 16.6655 18.7955 16.4545C18.5845 16.2435 18.2984 16.125 18 16.125Z" fill="white" fill-opacity="0.95"/>
</svg>
