<svg width="24" height="24" viewBox="0 0 24 24" fill="none" xmlns="http://www.w3.org/2000/svg">
<path d="M2.625 6C2.625 5.70163 2.74353 5.41548 2.9545 5.2045C3.16548 4.99353 3.45163 4.875 3.75 4.875H20.25C20.5484 4.875 20.8345 4.99353 21.0455 5.2045C21.2565 5.41548 21.375 5.70163 21.375 6C21.375 6.29837 21.2565 6.58452 21.0455 6.7955C20.8345 7.00647 20.5484 7.125 20.25 7.125H3.75C3.45163 7.125 3.16548 7.00647 2.9545 6.7955C2.74353 6.58452 2.625 6.29837 2.625 6ZM20.25 8.625H8.25C7.95163 8.625 7.66548 8.74353 7.4545 8.9545C7.24353 9.16548 7.125 9.45163 7.125 9.75C7.125 10.0484 7.24353 10.3345 7.4545 10.5455C7.66548 10.7565 7.95163 10.875 8.25 10.875H20.25C20.5484 10.875 20.8345 10.7565 21.0455 10.5455C21.2565 10.3345 21.375 10.0484 21.375 9.75C21.375 9.45163 21.2565 9.16548 21.0455 8.9545C20.8345 8.74353 20.5484 8.625 20.25 8.625ZM20.25 12.375H3.75C3.45163 12.375 3.16548 12.4935 2.9545 12.7045C2.74353 12.9155 2.625 13.2016 2.625 13.5C2.625 13.7984 2.74353 14.0845 2.9545 14.2955C3.16548 14.5065 3.45163 14.625 3.75 14.625H20.25C20.5484 14.625 20.8345 14.5065 21.0455 14.2955C21.2565 14.0845 21.375 13.7984 21.375 13.5C21.375 13.2016 21.2565 12.9155 21.0455 12.7045C20.8345 12.4935 20.5484 12.375 20.25 12.375ZM20.25 16.125H8.25C7.95163 16.125 7.66548 16.2435 7.4545 16.4545C7.24353 16.6655 7.125 16.9516 7.125 17.25C7.125 17.5484 7.24353 17.8345 7.4545 18.0455C7.66548 18.2565 7.95163 18.375 8.25 18.375H20.25C20.5484 18.375 20.8345 18.2565 21.0455 18.0455C21.2565 17.8345 21.375 17.5484 21.375 17.25C21.375 16.9516 21.2565 16.6655 21.0455 16.4545C20.8345 16.2435 20.5484 16.125 20.25 16.125Z" fill="white" fill-opacity="0.95"/>
</svg>
