<svg width="32" height="32" viewBox="0 0 32 32" fill="none" xmlns="http://www.w3.org/2000/svg">
<path d="M29.4999 17.125C29.2792 19.69 28.3305 22.1387 26.7654 24.183C25.2004 26.2272 23.084 27.7819 20.6654 28.6642C18.2467 29.5465 15.6264 29.7197 13.1127 29.1634C10.5989 28.6071 8.29639 27.3444 6.47591 25.5239C4.65543 23.7034 3.39275 21.4009 2.83642 18.8871C2.2801 16.3734 2.45327 13.7531 3.33558 11.3344C4.21788 8.91578 5.77261 6.79943 7.81684 5.23436C9.86107 3.66929 12.3098 2.72062 14.8749 2.49995C15.2727 2.4668 15.6674 2.59304 15.9721 2.85091C16.2769 3.10877 16.4667 3.47713 16.4999 3.87495C16.533 4.27278 16.4068 4.66748 16.1489 4.97223C15.891 5.27697 15.5227 5.4668 15.1249 5.49995C13.1291 5.67111 11.2237 6.40878 9.63293 7.62615C8.04218 8.84353 6.83225 10.4899 6.14553 12.3717C5.45881 14.2534 5.32386 16.2921 5.75658 18.248C6.18929 20.2038 7.17166 21.9953 8.58808 23.4117C10.0045 24.8281 11.796 25.8105 13.7519 26.2432C15.7077 26.6759 17.7464 26.541 19.6281 25.8543C21.5099 25.1676 23.1563 23.9576 24.3737 22.3669C25.591 20.7761 26.3287 18.8707 26.4999 16.875C26.5163 16.678 26.5713 16.4862 26.6619 16.3104C26.7524 16.1347 26.8767 15.9786 27.0276 15.8509C27.1785 15.7232 27.353 15.6265 27.5413 15.5663C27.7296 15.5061 27.9279 15.4835 28.1249 15.5C28.3218 15.5164 28.5137 15.5714 28.6894 15.662C28.8651 15.7525 29.0212 15.8768 29.1489 16.0277C29.2766 16.1786 29.3733 16.3531 29.4335 16.5414C29.4937 16.7297 29.5163 16.928 29.4999 17.125ZM14.4999 9.49995V16C14.4999 16.3978 14.6579 16.7793 14.9392 17.0606C15.2205 17.3419 15.602 17.5 15.9999 17.5H22.4999C22.8977 17.5 23.2792 17.3419 23.5605 17.0606C23.8418 16.7793 23.9999 16.3978 23.9999 16C23.9999 15.6021 23.8418 15.2206 23.5605 14.9393C23.2792 14.658 22.8977 14.5 22.4999 14.5H17.4999V9.49995C17.4999 9.10213 17.3418 8.7206 17.0605 8.43929C16.7792 8.15799 16.3977 7.99995 15.9999 7.99995C15.602 7.99995 15.2205 8.15799 14.9392 8.43929C14.6579 8.7206 14.4999 9.10213 14.4999 9.49995ZM25.9999 12C26.3954 12 26.7821 11.8827 27.111 11.6629C27.4399 11.4431 27.6962 11.1308 27.8476 10.7653C27.999 10.3999 28.0386 9.99774 27.9614 9.60977C27.8843 9.22181 27.6938 8.86545 27.4141 8.58574C27.1344 8.30604 26.778 8.11555 26.39 8.03838C26.0021 7.96121 25.5999 8.00082 25.2345 8.15219C24.869 8.30357 24.5567 8.55992 24.3369 8.88881C24.1172 9.21771 23.9999 9.60439 23.9999 9.99995C23.9999 10.5304 24.2106 11.0391 24.5856 11.4142C24.9607 11.7892 25.4694 12 25.9999 12ZM21.9999 7.99995C22.3954 7.99995 22.7821 7.88266 23.111 7.66289C23.4399 7.44313 23.6962 7.13077 23.8476 6.76532C23.999 6.39987 24.0386 5.99774 23.9614 5.60977C23.8843 5.22181 23.6938 4.86545 23.4141 4.58574C23.1344 4.30604 22.778 4.11555 22.39 4.03838C22.0021 3.96121 21.5999 4.00082 21.2345 4.15219C20.869 4.30357 20.5567 4.55992 20.3369 4.88881C20.1172 5.21771 19.9999 5.60439 19.9999 5.99995C19.9999 6.53039 20.2106 7.03909 20.5856 7.41417C20.9607 7.78924 21.4694 7.99995 21.9999 7.99995Z" fill="white"/>
</svg>
