<svg width="32" height="32" viewBox="0 0 32 32" fill="none" xmlns="http://www.w3.org/2000/svg">
<path d="M32 17C32 17.3978 31.842 17.7793 31.5607 18.0606C31.2794 18.342 30.8979 18.5 30.5 18.5H29.5V19.5C29.5 19.8978 29.342 20.2793 29.0607 20.5606C28.7794 20.842 28.3979 21 28 21C27.6022 21 27.2207 20.842 26.9394 20.5606C26.6581 20.2793 26.5 19.8978 26.5 19.5V18.5H25.5C25.1022 18.5 24.7207 18.342 24.4394 18.0606C24.1581 17.7793 24 17.3978 24 17C24 16.6022 24.1581 16.2206 24.4394 15.9393C24.7207 15.658 25.1022 15.5 25.5 15.5H26.5V14.5C26.5 14.1022 26.6581 13.7206 26.9394 13.4393C27.2207 13.158 27.6022 13 28 13C28.3979 13 28.7794 13.158 29.0607 13.4393C29.342 13.7206 29.5 14.1022 29.5 14.5V15.5H30.5C30.8979 15.5 31.2794 15.658 31.5607 15.9393C31.842 16.2206 32 16.6022 32 17ZM25.1488 24.035C25.4047 24.3397 25.5292 24.7335 25.4947 25.1299C25.4602 25.5263 25.2697 25.8928 24.965 26.1487C24.6604 26.4047 24.2665 26.5291 23.8701 26.4946C23.4737 26.4602 23.1072 26.2697 22.8513 25.965C21.14 23.9275 18.125 21.5 13.5 21.5C9.88879 21.5 6.56754 23.085 4.14879 25.965C3.89286 26.2697 3.52638 26.4602 3.12997 26.4946C2.73357 26.5291 2.33971 26.4047 2.03504 26.1487C1.73038 25.8928 1.53986 25.5263 1.5054 25.1299C1.47094 24.7335 1.59536 24.3397 1.85129 24.035C3.48095 22.0668 5.57165 20.5317 7.93754 19.5662C6.46633 18.4096 5.39228 16.8231 4.86486 15.0275C4.33743 13.2319 4.38287 11.3165 4.99484 9.54798C5.60682 7.77941 6.75489 6.24561 8.27929 5.16002C9.80369 4.07442 11.6286 3.49103 13.5 3.49103C15.3715 3.49103 17.1964 4.07442 18.7208 5.16002C20.2452 6.24561 21.3933 7.77941 22.0052 9.54798C22.6172 11.3165 22.6627 13.2319 22.1352 15.0275C21.6078 16.8231 20.5338 18.4096 19.0625 19.5662C21.4286 20.5314 23.5194 22.0665 25.1488 24.035ZM13.5 18.5C14.6867 18.5 15.8468 18.1481 16.8335 17.4888C17.8202 16.8295 18.5892 15.8924 19.0433 14.7961C19.4974 13.6997 19.6163 12.4933 19.3848 11.3294C19.1532 10.1656 18.5818 9.09646 17.7427 8.25735C16.9036 7.41823 15.8345 6.84679 14.6706 6.61528C13.5067 6.38376 12.3003 6.50258 11.2039 6.95671C10.1076 7.41084 9.17051 8.17987 8.51123 9.16657C7.85194 10.1533 7.50004 11.3133 7.50004 12.5C7.5017 14.0908 8.13437 15.6159 9.25923 16.7408C10.3841 17.8657 11.9093 18.4983 13.5 18.5Z" fill="white" fill-opacity="0.95"/>
</svg>
