<svg width="32" height="32" viewBox="0 0 32 32" fill="none" xmlns="http://www.w3.org/2000/svg">
<path d="M19.0625 19.5675C20.5338 18.4109 21.6078 16.8243 22.1352 15.0288C22.6627 13.2332 22.6172 11.3178 22.0052 9.54926C21.3933 7.7807 20.2452 6.24689 18.7208 5.1613C17.1964 4.0757 15.3715 3.49231 13.5 3.49231C11.6286 3.49231 9.80369 4.0757 8.27929 5.1613C6.75489 6.24689 5.60682 7.7807 4.99484 9.54926C4.38287 11.3178 4.33743 13.2332 4.86486 15.0288C5.39228 16.8243 6.46633 18.4109 7.93754 19.5675C5.57158 20.5323 3.48081 22.067 1.85129 24.035C1.59536 24.3397 1.47094 24.7335 1.5054 25.1299C1.53986 25.5264 1.73038 25.8928 2.03504 26.1488C2.33971 26.4047 2.73357 26.5291 3.12997 26.4947C3.52638 26.4602 3.89286 26.2697 4.14879 25.965C5.86004 23.9275 8.87504 21.5 13.5 21.5C18.125 21.5 21.14 23.9275 22.8513 25.965C23.1072 26.2697 23.4737 26.4602 23.8701 26.4947C24.2665 26.5291 24.6604 26.4047 24.965 26.1488C25.2697 25.8928 25.4602 25.5264 25.4947 25.1299C25.5292 24.7335 25.4047 24.3397 25.1488 24.035C23.5197 22.0666 21.4288 20.5318 19.0625 19.5675ZM7.50004 12.5C7.50004 11.3133 7.85194 10.1533 8.51123 9.1666C9.17051 8.1799 10.1076 7.41087 11.2039 6.95674C12.3003 6.50262 13.5067 6.3838 14.6706 6.61531C15.8345 6.84682 16.9036 7.41826 17.7427 8.25738C18.5818 9.09649 19.1532 10.1656 19.3848 11.3295C19.6163 12.4934 19.4974 13.6998 19.0433 14.7961C18.5892 15.8925 17.8202 16.8295 16.8335 17.4888C15.8468 18.1481 14.6867 18.5 13.5 18.5C11.9093 18.4984 10.3841 17.8657 9.25923 16.7408C8.13437 15.616 7.5017 14.0908 7.50004 12.5ZM31.5613 17.0613L27.5613 21.0613C27.4219 21.2011 27.2563 21.3121 27.074 21.3878C26.8917 21.4635 26.6962 21.5025 26.4988 21.5025C26.3014 21.5025 26.1059 21.4635 25.9236 21.3878C25.7412 21.3121 25.5756 21.2011 25.4363 21.0613L23.4363 19.0613C23.1545 18.7795 22.9962 18.3973 22.9962 17.9988C22.9962 17.6003 23.1545 17.2181 23.4363 16.9363C23.7181 16.6545 24.1003 16.4962 24.4988 16.4962C24.8973 16.4962 25.2795 16.6545 25.5613 16.9363L26.5 17.875L29.4388 14.935C29.5783 14.7955 29.744 14.6848 29.9263 14.6093C30.1086 14.5338 30.304 14.4949 30.5013 14.4949C30.6986 14.4949 30.894 14.5338 31.0763 14.6093C31.2586 14.6848 31.4243 14.7955 31.5638 14.935C31.7033 15.0745 31.814 15.2402 31.8895 15.4225C31.965 15.6048 32.0039 15.8002 32.0039 15.9975C32.0039 16.1948 31.965 16.3902 31.8895 16.5725C31.814 16.7548 31.7033 16.9205 31.5638 17.06L31.5613 17.0613Z" fill="white" fill-opacity="0.95"/>
</svg>
